<svg width="1313" height="392" viewBox="0 0 1313 392" fill="none" xmlns="http://www.w3.org/2000/svg">
<path d="M155.559 3.80809L13.8904 87.4933C9.66721 89.988 6.16021 93.5762 3.72193 97.8972C1.28365 102.218 6.29193e-07 107.12 0 112.109V279.479C5.26798e-07 284.469 1.28365 289.37 3.72193 293.691C6.16021 298.012 9.66721 301.601 13.8904 304.095L155.559 387.78C159.782 390.275 164.573 391.589 169.449 391.589C174.326 391.589 179.116 390.275 183.34 387.781L325.01 304.095C329.233 301.6 332.74 298.012 335.178 293.691C337.617 289.37 338.9 284.469 338.9 279.479V112.109C338.9 107.12 337.617 102.218 335.178 97.8972C332.74 93.5762 329.233 89.9881 325.01 87.4934L183.34 3.80802C179.116 1.31333 174.326 -1.25205e-05 169.449 0C164.573 1.25207e-05 159.782 1.31338 155.559 3.80809ZM183.678 34.419L297.521 102.414C301.736 104.931 305.233 108.535 307.664 112.866C310.094 117.197 311.373 122.103 311.373 127.097V263.36C311.373 268.354 310.094 273.261 307.664 277.592C305.233 281.923 301.736 285.526 297.521 288.044L183.678 356.039C179.474 358.549 174.694 359.873 169.826 359.873C164.958 359.873 160.178 358.549 155.974 356.039L42.1312 288.044C37.9159 285.526 34.4189 281.923 31.9885 277.592C29.5582 273.261 28.2793 268.354 28.2793 263.36V127.097C28.2793 122.103 29.5582 117.197 31.9885 112.866C34.4189 108.535 37.9159 104.931 42.1312 102.414L155.974 34.419C160.178 31.9082 164.958 30.5852 169.826 30.5852C174.694 30.5852 179.474 31.9082 183.678 34.419Z" fill="#0057A0"/>
<path d="M113.07 99.3645C108.609 99.3405 104.066 99.983 99.9277 100.38C91.3678 101.878 86.0428 107.835 80.6211 114.027C77.4444 122.248 75.1788 130.819 76.0411 139.701C76.0349 178.652 76.1365 217.604 76.2207 256.556H105.785C105.769 214.478 105.681 172.398 105.709 130.322C110.953 125.018 117.613 132.889 122.049 137.019C159.728 177.261 197.285 217.631 235.756 257.118C240.856 262.887 250.788 262.407 255.934 256.91C259.489 252.509 259.117 246.692 258.721 240.88V231.314C258.721 230.749 258.72 230.185 258.721 229.62C258.749 200.502 258.753 171.385 258.762 142.267H229.883V199.255V208.646V212.427L223.801 205.841L223.838 205.804C222.795 204.849 221.766 203.783 220.754 202.59L220.745 202.598L211.564 192.658L211.592 192.634C182.944 162.568 154.961 131.852 125.727 102.355C121.914 100.081 117.531 99.3885 113.07 99.3645Z" fill="#0057A0"/>
<path d="M90.4407 303.753C105.026 303.753 116.849 291.93 116.849 277.345C116.849 262.76 105.026 250.937 90.4407 250.937C75.8559 250.937 64.0325 262.76 64.0325 277.345C64.0325 291.93 75.8559 303.753 90.4407 303.753Z" fill="#0057A0"/>
<path d="M244.347 147.697C258.932 147.697 270.756 135.874 270.756 121.289C270.756 106.704 258.932 94.881 244.347 94.881C229.763 94.881 217.939 106.704 217.939 121.289C217.939 135.874 229.763 147.697 244.347 147.697Z" fill="#0057A0"/>
<path d="M136.778 232.929L232.9 333.361L258.618 318.419L137.065 195.285L136.778 232.929Z" fill="#0057A0"/>
<path d="M110.528 109.046C119.238 109.046 126.3 106.667 126.3 103.732C126.3 100.798 119.238 98.4188 110.528 98.4188C101.817 98.4188 94.7554 100.798 94.7554 103.732C94.7554 106.667 101.817 109.046 110.528 109.046Z" fill="#0057A0"/>
<path d="M100.684 116.481C109.801 112.264 115.683 105.586 113.823 101.565C111.962 97.5453 103.064 97.7054 93.9473 101.923C84.8308 106.141 78.9485 112.819 80.8089 116.839C82.6693 120.859 91.5679 120.699 100.684 116.481Z" fill="#0057A0"/>
<path d="M399.839 242V151.47H417.169L470.582 216.652H462.176V151.47H482.868V242H465.667L412.125 176.818H420.532V242H399.839ZM523.557 187.941H567.141V204.236H523.557V187.941ZM525.109 225.187H574.383V242H504.287V151.47H572.702V168.283H525.109V225.187ZM609.806 242V168.541H580.837V151.47H659.727V168.541H630.757V242H609.806Z" fill="#0057A0"/>
<path d="M671 242V151.47H710.186C718.291 151.47 725.275 152.806 731.138 155.479C737.001 158.066 741.527 161.816 744.717 166.731C747.907 171.645 749.502 177.508 749.502 184.319C749.502 191.045 747.907 196.864 744.717 201.779C741.527 206.693 737.001 210.487 731.138 213.16C725.275 215.746 718.291 217.04 710.186 217.04H682.639L691.951 207.599V242H671ZM691.951 209.926L682.639 199.968H709.022C715.489 199.968 720.317 198.589 723.507 195.83C726.697 193.071 728.292 189.234 728.292 184.319C728.292 179.319 726.697 175.439 723.507 172.68C720.317 169.921 715.489 168.541 709.022 168.541H682.639L691.951 158.583V209.926ZM764.46 242V151.47H803.647C811.751 151.47 818.735 152.806 824.598 155.479C830.461 158.066 834.987 161.816 838.177 166.731C841.367 171.645 842.962 177.508 842.962 184.319C842.962 191.045 841.367 196.864 838.177 201.779C834.987 206.607 830.461 210.314 824.598 212.901C818.735 215.488 811.751 216.781 803.647 216.781H776.1L785.411 207.599V242H764.46ZM822.011 242L799.379 209.151H821.753L844.644 242H822.011ZM785.411 209.926L776.1 200.098H802.483C808.949 200.098 813.777 198.718 816.967 195.959C820.158 193.114 821.753 189.234 821.753 184.319C821.753 179.319 820.158 175.439 816.967 172.68C813.777 169.921 808.949 168.541 802.483 168.541H776.1L785.411 158.583V209.926ZM903.534 243.552C896.378 243.552 889.739 242.388 883.617 240.06C877.582 237.732 872.322 234.456 867.839 230.231C863.442 226.006 859.993 221.049 857.493 215.358C855.079 209.668 853.872 203.46 853.872 196.735C853.872 190.01 855.079 183.802 857.493 178.112C859.993 172.421 863.485 167.464 867.968 163.239C872.452 159.014 877.711 155.738 883.746 153.41C889.782 151.082 896.334 149.918 903.404 149.918C910.561 149.918 917.113 151.082 923.062 153.41C929.098 155.738 934.314 159.014 938.711 163.239C943.195 167.464 946.686 172.421 949.187 178.112C951.687 183.716 952.937 189.924 952.937 196.735C952.937 203.46 951.687 209.711 949.187 215.488C946.686 221.178 943.195 226.136 938.711 230.36C934.314 234.499 929.098 237.732 923.062 240.06C917.113 242.388 910.604 243.552 903.534 243.552ZM903.404 225.705C907.457 225.705 911.164 225.015 914.527 223.635C917.975 222.256 920.993 220.273 923.58 217.686C926.166 215.1 928.149 212.039 929.529 208.504C930.995 204.969 931.727 201.046 931.727 196.735C931.727 192.424 930.995 188.501 929.529 184.966C928.149 181.431 926.166 178.37 923.58 175.784C921.079 173.197 918.105 171.214 914.656 169.835C911.207 168.455 907.457 167.765 903.404 167.765C899.352 167.765 895.602 168.455 892.153 169.835C888.79 171.214 885.816 173.197 883.229 175.784C880.643 178.37 878.616 181.431 877.151 184.966C875.771 188.501 875.081 192.424 875.081 196.735C875.081 200.96 875.771 204.883 877.151 208.504C878.616 212.039 880.599 215.1 883.1 217.686C885.686 220.273 888.704 222.256 892.153 223.635C895.602 225.015 899.352 225.705 903.404 225.705ZM986.173 242V168.541H957.203V151.47H1036.09V168.541H1007.12V242H986.173ZM1066.64 187.941H1110.22V204.236H1066.64V187.941ZM1068.19 225.187H1117.46V242H1047.37V151.47H1115.78V168.283H1068.19V225.187ZM1177.46 243.552C1170.47 243.552 1163.96 242.431 1157.93 240.189C1151.98 237.861 1146.81 234.585 1142.41 230.36C1138.01 226.136 1134.56 221.178 1132.06 215.488C1129.65 209.797 1128.44 203.546 1128.44 196.735C1128.44 189.924 1129.65 183.673 1132.06 177.982C1134.56 172.292 1138.01 167.334 1142.41 163.11C1146.89 158.885 1152.11 155.652 1158.06 153.41C1164.01 151.082 1170.52 149.918 1177.59 149.918C1185.43 149.918 1192.5 151.298 1198.8 154.057C1205.18 156.729 1210.52 160.695 1214.83 165.955L1201.38 178.37C1198.28 174.835 1194.83 172.206 1191.04 170.481C1187.24 168.671 1183.11 167.765 1178.62 167.765C1174.4 167.765 1170.52 168.455 1166.98 169.835C1163.45 171.214 1160.39 173.197 1157.8 175.784C1155.21 178.37 1153.19 181.431 1151.72 184.966C1150.34 188.501 1149.65 192.424 1149.65 196.735C1149.65 201.046 1150.34 204.969 1151.72 208.504C1153.19 212.039 1155.21 215.1 1157.8 217.686C1160.39 220.273 1163.45 222.256 1166.98 223.635C1170.52 225.015 1174.4 225.705 1178.62 225.705C1183.11 225.705 1187.24 224.842 1191.04 223.118C1194.83 221.307 1198.28 218.592 1201.38 214.97L1214.83 227.386C1210.52 232.645 1205.18 236.654 1198.8 239.413C1192.5 242.172 1185.39 243.552 1177.46 243.552ZM1291.06 151.47H1312.01V242H1291.06V151.47ZM1249.93 242H1228.98V151.47H1249.93V242ZM1292.61 204.883H1248.38V187.165H1292.61V204.883Z" fill="#4D4D4D"/>
</svg>
